<svg xmlns="http://www.w3.org/2000/svg" width="132" height="25" viewBox="0 0 132 25"><path fill="#92a3b0" d="M11.62 2.01c.37 0 .69.13.96.4s.41.6.41.97v9.8a6.24 6.24 0 0 1-1.91 4.57 6.27 6.27 0 0 1-4.58 1.89c-1.8 0-3.32-.63-4.6-1.9a6.26 6.26 0 0 1-1.9-4.6c0-1.79.63-3.32 1.9-4.59a6.27 6.27 0 0 1 4.6-1.9c1.62 0 2.87.37 3.73 1.13V3.37c0-.37.13-.69.41-.97.26-.27.58-.4.96-.4h.02zm-7.78 8.51a3.65 3.65 0 0 0-1.08 2.66c0 1.03.36 1.91 1.08 2.64.73.73 1.62 1.1 2.66 1.1a3.6 3.6 0 0 0 2.64-1.1c.73-.73 1.1-1.6 1.1-2.64s-.37-1.93-1.1-2.66A3.58 3.58 0 0 0 6.5 9.43a3.6 3.6 0 0 0-2.66 1.09zM21.5 7c1.79 0 3.32.63 4.59 1.9a6.27 6.27 0 0 1 1.9 4.6c0 1.79-.63 3.32-1.9 4.59a6.25 6.25 0 0 1-4.59 1.9c-1.8 0-3.32-.63-4.6-1.9A6.25 6.25 0 0 1 15 13.5c0-1.8.63-3.32 1.9-4.6A6.27 6.27 0 0 1 21.5 7zm0 2.79c-1.04 0-1.93.36-2.66 1.09a3.67 3.67 0 0 0-1.08 2.66c0 1.03.36 1.92 1.08 2.65a3.62 3.62 0 0 0 2.66 1.09 3.6 3.6 0 0 0 2.64-1.09 3.6 3.6 0 0 0 1.1-2.65c0-1.04-.37-1.92-1.1-2.66a3.6 3.6 0 0 0-2.64-1.09zM32.41 2.01a1.38 1.38 0 0 1 1.37 1.37v14.9c0 .39-.13.7-.41.96-.27.27-.59.41-.96.41h-.04c-.36 0-.68-.13-.96-.41a1.25 1.25 0 0 1-.41-.96V3.37c0-.37.13-.69.41-.97.27-.27.59-.4.96-.4h.04zM37.41 2.01a1.38 1.38 0 0 1 1.37 1.37v14.9c0 .39-.13.7-.41.96-.27.27-.59.41-.96.41h-.04c-.36 0-.68-.13-.96-.41a1.25 1.25 0 0 1-.41-.96V3.37c0-.37.13-.69.41-.97.27-.27.59-.4.96-.4h.04zM53.1 8.9a6.27 6.27 0 0 1 1.9 4.6v5.13c0 .39-.13.7-.41.96-.26.27-.58.41-.96.41h-.03c-.37 0-.69-.13-.96-.41a1.25 1.25 0 0 1-.41-.96c-.86.91-2.11 1.36-3.73 1.36-1.8 0-3.32-.63-4.6-1.9A6.25 6.25 0 0 1 42 13.5c0-1.8.63-3.32 1.9-4.6A6.27 6.27 0 0 1 48.5 7c1.8 0 3.33.63 4.6 1.9zm-7.25 1.96a3.63 3.63 0 0 0-1.08 2.65c0 1.04.36 1.92 1.08 2.65a3.66 3.66 0 0 0 2.66 1.09c1.04 0 1.91-.37 2.64-1.09a3.6 3.6 0 0 0 1.1-2.65c0-1.03-.37-1.92-1.1-2.65a3.58 3.58 0 0 0-2.64-1.09c-1.04 0-1.93.36-2.66 1.09zM62.63 7a1.39 1.39 0 0 1 1.38 1.38v.03a1.39 1.39 0 0 1-1.38 1.37h-.64c-.62 0-1.14.21-1.57.64a2.2 2.2 0 0 0-.64 1.57v6.66c0 .39-.13.7-.41.97-.27.26-.59.41-.96.41h-.04c-.36 0-.68-.14-.96-.41a1.3 1.3 0 0 1-.41-.97v-6.66a4.9 4.9 0 0 1 1.46-3.52 4.8 4.8 0 0 1 3.52-1.45h.65zM68.95 9.78c-.33 0-.61.11-.83.34-.22.23-.34.51-.34.83 0 .45.22.79.65 1.02.16.09.78.26 1.88.56.9.26 1.56.59 1.99 1.01.62.6.95 1.44.95 2.54a3.8 3.8 0 0 1-1.16 2.78 3.8 3.8 0 0 1-2.78 1.16h-2.94c-.36 0-.68-.14-.96-.41a1.3 1.3 0 0 1-.41-.97v-.02c0-.38.13-.7.41-.97.27-.27.59-.41.96-.41h3.06c.33 0 .61-.11.83-.35.22-.22.34-.49.34-.83 0-.41-.21-.73-.64-.94-.11-.05-.74-.24-1.89-.56a4.8 4.8 0 0 1-2-1.04 3.46 3.46 0 0 1-.94-2.58c0-1.08.39-2 1.15-2.78A3.84 3.84 0 0 1 69.07 7h2.08c.38 0 .7.13.98.41.26.28.41.6.41.97v.03c0 .38-.14.7-.41.96-.27.26-.6.41-.98.41zM76.37 24.64c-.36 0-.68-.13-.96-.41a1.28 1.28 0 0 1-.41-.96v-9.8a6.26 6.26 0 0 1 1.91-4.58A6.27 6.27 0 0 1 81.5 7c1.79 0 3.32.63 4.59 1.9a6.27 6.27 0 0 1 1.9 4.6c0 1.79-.64 3.32-1.9 4.59a6.25 6.25 0 0 1-4.59 1.9c-1.64 0-2.89-.37-3.73-1.13v4.41c0 .36-.14.69-.41.96-.27.28-.59.41-.97.41zm7.77-8.51c.73-.73 1.1-1.6 1.1-2.64s-.37-1.93-1.1-2.66a3.6 3.6 0 0 0-2.64-1.09c-1.04 0-1.93.37-2.66 1.09a3.65 3.65 0 0 0-1.08 2.66c0 1.02.36 1.91 1.08 2.64.73.73 1.62 1.1 2.66 1.1a3.6 3.6 0 0 0 2.64-1.1zM95.63 7a1.39 1.39 0 0 1 1.38 1.38v.03c0 .37-.14.69-.4.96-.28.26-.6.41-.98.41h-.64c-.62 0-1.14.21-1.57.64a2.2 2.2 0 0 0-.64 1.57v6.66c0 .39-.13.7-.41.97-.27.26-.59.41-.96.41h-.04c-.36 0-.68-.14-.96-.41a1.26 1.26 0 0 1-.41-.97v-6.66a4.94 4.94 0 0 1 4.97-4.97h.66zM115.78 14.56a2.63 2.63 0 0 0 2.69 2.68 2.6 2.6 0 0 0 1.9-.78c.52-.53.78-1.16.78-1.9V8.38c0-.37.13-.69.41-.97.26-.27.59-.41.97-.41h.02c.39 0 .71.13.96.41.27.28.41.6.41.97v6.18c0 1.49-.53 2.78-1.6 3.85a5.27 5.27 0 0 1-3.85 1.61 5.3 5.3 0 0 1-3.87-1.61 5.28 5.28 0 0 1-1.6-3.85V8.38c0-.37.13-.69.41-.97.27-.27.59-.41.96-.41h.04c.36 0 .68.13.96.41.26.28.41.6.41.97zM127.39 2.01a1.38 1.38 0 0 1 1.38 1.37v3.27h1.69c.37 0 .69.13.96.41.27.27.41.6.41.97v.02c0 .39-.13.71-.41.97-.26.26-.58.41-.96.41h-1.69v6.68c0 .22.07.4.22.55.15.16.34.23.56.23h.91c.37 0 .69.13.96.41.27.26.41.59.41.97v.02c0 .39-.13.7-.41.96-.26.27-.58.41-.96.41h-.91c-.97 0-1.81-.34-2.51-1.04a3.4 3.4 0 0 1-1.04-2.5V3.37c0-.37.13-.69.41-.97.27-.27.59-.4.96-.4h.02zM104.48 8.53s-.65-4.83-6.14-6.06c0 0 4.09.33 5.73 3.35 0 0 1.23-5.81-3.85-5.24C95.14 1.15 94 0 94 0s2.21 7.95 7.95 6.14c-.01.02 1.55.76 2.53 2.39zM105.31 6.26s5.41.82 6.12-5.06c0 0-5.61-1.64-6.43 4.49l4.59-3.16z"/><path fill="#92a3b0" d="M109.09 8.88A6.2 6.2 0 0 0 104.98 7c.62.91.6 2 .41 2.87.66.15 1.24.47 1.75.98.73.73 1.1 1.62 1.1 2.66a3.6 3.6 0 0 1-1.1 2.64 3.6 3.6 0 0 1-2.64 1.1 3.63 3.63 0 0 1-2.66-1.1 3.6 3.6 0 0 1-1.08-2.64c0-1.04.36-1.93 1.08-2.66a3.62 3.62 0 0 1 2.66-1.09c.12-1.14-.7-2.13-1.29-2.67a6.23 6.23 0 0 0-3.31 1.79 6.25 6.25 0 0 0-1.9 4.59c0 1.8.63 3.32 1.9 4.6a6.27 6.27 0 0 0 4.6 1.9c1.79 0 3.32-.63 4.59-1.9a6.27 6.27 0 0 0 1.9-4.6c0-1.79-.63-3.32-1.9-4.59z"/></svg>