<svg xmlns="http://www.w3.org/2000/svg" width="170" height="31" viewBox="0 0 170 31"><path fill="#14e34a" d="M15 2.01a1.78 1.78 0 0 1 1.77 1.78v12.64a8 8 0 0 1-2.47 5.9 8.08 8.08 0 0 1-5.91 2.44 8.06 8.06 0 0 1-5.93-2.45A8.06 8.06 0 0 1 0 16.39c0-2.32.81-4.29 2.46-5.93A8.07 8.07 0 0 1 8.39 8c2.1 0 3.71.49 4.81 1.46V3.77c0-.48.17-.9.53-1.26A1.7 1.7 0 0 1 14.97 2H15zM4.96 13a4.71 4.71 0 0 0-1.4 3.43c0 1.33.47 2.47 1.4 3.42a4.66 4.66 0 0 0 3.43 1.41c1.33 0 2.47-.47 3.41-1.41a4.68 4.68 0 0 0 1.42-3.42c0-1.34-.48-2.49-1.42-3.43a4.63 4.63 0 0 0-3.41-1.41c-1.36 0-2.49.47-3.43 1.41zM27.39 8c2.31 0 4.28.81 5.93 2.46a8.06 8.06 0 0 1 2.45 5.93 8.1 8.1 0 0 1-2.45 5.93 8.1 8.1 0 0 1-5.93 2.45 8.06 8.06 0 0 1-5.93-2.45A8.06 8.06 0 0 1 19 16.39c0-2.32.81-4.29 2.46-5.93A8.03 8.03 0 0 1 27.39 8zm0 3.6c-1.35 0-2.49.47-3.43 1.42a4.69 4.69 0 0 0-1.4 3.42 4.7 4.7 0 0 0 1.4 3.42 4.66 4.66 0 0 0 3.43 1.41c1.33 0 2.47-.47 3.41-1.41a4.65 4.65 0 0 0 1.42-3.42c0-1.34-.48-2.48-1.42-3.42a4.62 4.62 0 0 0-3.41-1.42zM40.81 2.01c.48 0 .89.18 1.25.52.34.34.53.77.53 1.26v19.23c0 .5-.18.9-.53 1.24-.35.34-.76.53-1.25.53h-.04c-.47 0-.88-.17-1.24-.53a1.67 1.67 0 0 1-.53-1.24V3.77c0-.48.17-.9.53-1.26A1.7 1.7 0 0 1 40.77 2h.04zM48.81 2.01c.48 0 .89.18 1.25.52.34.34.53.77.53 1.26v19.23c0 .5-.18.9-.53 1.24-.35.34-.76.53-1.25.53h-.04c-.47 0-.88-.17-1.24-.53a1.67 1.67 0 0 1-.53-1.24V3.77c0-.48.17-.9.53-1.26A1.7 1.7 0 0 1 48.77 2h.04zM68.33 10.46a8.07 8.07 0 0 1 2.46 5.93v6.63c0 .5-.17.9-.53 1.24-.34.34-.76.53-1.24.53h-.05c-.47 0-.88-.17-1.24-.53a1.67 1.67 0 0 1-.53-1.24c-1.1 1.17-2.71 1.75-4.81 1.75a8.06 8.06 0 0 1-5.93-2.45A8.06 8.06 0 0 1 54 16.39c0-2.32.81-4.29 2.46-5.93A8.03 8.03 0 0 1 62.39 8c2.33 0 4.3.81 5.94 2.46zm-9.36 2.53a4.66 4.66 0 0 0-1.4 3.41c0 1.34.47 2.49 1.4 3.43.95.93 2.09 1.4 3.43 1.4a4.7 4.7 0 0 0 3.42-1.4 4.68 4.68 0 0 0 1.41-3.43c0-1.33-.47-2.47-1.41-3.41a4.64 4.64 0 0 0-3.42-1.42c-1.34 0-2.48.47-3.43 1.42zM80.27 8c.49 0 .9.17 1.26.53.34.36.51.77.51 1.26v.02c0 .49-.17.9-.51 1.25-.34.34-.77.53-1.26.53h-.83c-.8 0-1.47.27-2.03.82a2.86 2.86 0 0 0-.82 2.03v8.61c0 .5-.18.9-.53 1.24-.35.34-.76.53-1.25.53h-.04c-.47 0-.88-.17-1.24-.53a1.67 1.67 0 0 1-.53-1.24v-8.61a6.26 6.26 0 0 1 1.89-4.54 6.15 6.15 0 0 1 4.54-1.87h.84z"/><path fill="#37b34a" d="M88.1 11.59c-.43 0-.79.14-1.07.44-.29.3-.44.66-.44 1.07 0 .59.28 1.02.84 1.32.2.11 1 .34 2.43.72 1.16.33 2.01.76 2.57 1.3.8.78 1.21 1.86 1.21 3.28 0 1.4-.5 2.6-1.48 3.6-1 .98-2.2 1.48-3.6 1.48h-3.79c-.47 0-.88-.17-1.24-.53a1.65 1.65 0 0 1-.53-1.24V23c0-.48.17-.9.53-1.26a1.7 1.7 0 0 1 1.24-.52h3.95c.42 0 .78-.15 1.07-.45.28-.28.44-.64.44-1.07 0-.53-.27-.94-.83-1.21-.14-.07-.96-.32-2.44-.73a6 6 0 0 1-2.57-1.34 4.48 4.48 0 0 1-1.22-3.33c0-1.4.5-2.59 1.49-3.59 1-1 2.2-1.5 3.6-1.5h2.68c.49 0 .9.17 1.26.53.34.36.53.77.53 1.26v.02c0 .5-.17.92-.53 1.25-.34.34-.77.53-1.26.53zM97.77 30.77c-.47 0-.88-.17-1.24-.52A1.74 1.74 0 0 1 96 29V16.36a8.08 8.08 0 0 1 2.47-5.92A8.05 8.05 0 0 1 104.39 8c2.31 0 4.28.81 5.93 2.46a8.06 8.06 0 0 1 2.45 5.93c0 2.31-.82 4.28-2.45 5.93a8.1 8.1 0 0 1-5.93 2.45c-2.12 0-3.73-.48-4.82-1.45V29c0 .47-.17.89-.53 1.25-.34.35-.75.52-1.24.52zm10.03-10.98a4.67 4.67 0 0 0 1.42-3.42 4.7 4.7 0 0 0-1.42-3.43 4.65 4.65 0 0 0-3.41-1.4 4.7 4.7 0 0 0-3.43 1.4 4.73 4.73 0 0 0-1.4 3.43c0 1.33.47 2.47 1.4 3.42a4.66 4.66 0 0 0 3.43 1.41c1.34 0 2.48-.48 3.41-1.41zM123.27 8c.49 0 .9.17 1.26.53.34.36.51.77.51 1.26v.02a1.78 1.78 0 0 1-1.77 1.78h-.83c-.8 0-1.47.27-2.03.82a2.86 2.86 0 0 0-.82 2.03v8.61c0 .5-.18.9-.53 1.24-.35.34-.76.53-1.25.53h-.04c-.47 0-.88-.17-1.24-.53a1.6 1.6 0 0 1-.53-1.24v-8.61a6.33 6.33 0 0 1 1.87-4.54 6.17 6.17 0 0 1 4.55-1.87h.85zM148.59 17.76c0 .96.32 1.78 1 2.46.68.67 1.5 1 2.47 1a3.39 3.39 0 0 0 3.46-3.46V9.79A1.78 1.78 0 0 1 157.3 8h.03c.5 0 .91.17 1.24.53.35.36.53.77.53 1.26v7.97c0 1.93-.68 3.58-2.07 4.97a6.79 6.79 0 0 1-4.97 2.07c-1.94 0-3.6-.68-4.99-2.07a6.82 6.82 0 0 1-2.07-4.97V9.79c0-.49.17-.9.53-1.26.34-.34.76-.53 1.24-.53h.04c.48 0 .89.17 1.25.53.34.36.53.77.53 1.26zM163.8 2.01c.47 0 .89.18 1.24.52s.53.77.53 1.26V8h2.19c.47 0 .88.17 1.24.53.34.36.53.77.53 1.26v.03c0 .5-.17.91-.53 1.24-.34.34-.76.53-1.24.53h-2.19v8.63a.99.99 0 0 0 1.02 1h1.17c.47 0 .88.17 1.24.53.34.34.53.77.53 1.25v.03c0 .5-.17.9-.53 1.24-.34.35-.76.53-1.24.53h-1.17a4.43 4.43 0 0 1-3.25-1.34 4.42 4.42 0 0 1-1.34-3.23V3.77c0-.48.17-.9.53-1.26a1.7 1.7 0 0 1 1.24-.51h.03zM134.53 11.02s-.84-6.25-7.93-7.83c0 0 5.29.42 7.4 4.33 0 0 1.59-7.51-4.97-6.78C122.47 1.49 121 0 121 0s2.86 10.26 10.26 7.93c-.02.03 2 .97 3.27 3.09z"/><path fill="#14e34a" d="M135.4 7.79s6.99 1.05 7.9-6.53c0 0-7.24-2.12-8.3 5.8l5.93-4.09z"/><path fill="#37b34a" d="M140.32 10.43a8 8 0 0 0-5.3-2.43 4.7 4.7 0 0 1 .52 3.7c.85.2 1.6.61 2.26 1.27a4.7 4.7 0 0 1 1.42 3.43 4.7 4.7 0 0 1-1.42 3.42 4.65 4.65 0 0 1-3.41 1.41 4.66 4.66 0 0 1-3.43-1.41 4.7 4.7 0 0 1-1.4-3.42c0-1.34.47-2.48 1.4-3.43a4.66 4.66 0 0 1 3.43-1.41c.15-1.47-.9-2.75-1.66-3.45a8.04 8.04 0 0 0-4.27 2.32 8.03 8.03 0 0 0-2.46 5.93c0 2.31.81 4.28 2.46 5.93a8.07 8.07 0 0 0 5.93 2.46 8.1 8.1 0 0 0 5.93-2.46 8.1 8.1 0 0 0 2.45-5.93c0-2.32-.81-4.29-2.45-5.93z"/></svg>